<svg id="Capa_2" data-name="Capa 2" xmlns="http://www.w3.org/2000/svg" viewBox="0 0 198.31 50"><defs><style>.cls-1{fill:#034748;}.cls-2{fill:#1481ba;}.cls-3{fill:#001021;}</style></defs><title>icono</title><path class="cls-1" d="M32.18,42.67H8.35c-2.47,0-3.49-1-3.49-3.62q0-10,0-20c0-3.41.09-6.82,0-10.22A3.51,3.51,0,0,1,8.69,5C12.33,5,16,5,19.63,5H55.37c.37,0,.74,0,1.11,0a3.31,3.31,0,0,1,3.24,3.51q0,15.39,0,30.78A3.91,3.91,0,0,1,59,41.64a2.63,2.63,0,0,1-2.3,1c-5.81,0-11.63,0-17.45,0ZM7.81,40.05H56.66V7.78H7.81Z" transform="translate(-1 -1)"/><path class="cls-1" d="M64.65,43.55A3.42,3.42,0,0,1,64.31,46a1.74,1.74,0,0,1-1.56,1.15c-.51,0-1,0-1.52,0H4c-2.24,0-2.92-.8-3-3.57H28c.25.27.3.83.84,1.16h6.57c.49-.2.49-.79.8-1.2Z" transform="translate(-1 -1)"/><rect class="cls-1" x="7.71" y="8.24" width="47.18" height="2.57"/><rect class="cls-1" x="16.29" y="12.52" width="13.72" height="0.86"/><rect class="cls-1" x="16.29" y="14.24" width="13.72" height="0.86"/><rect class="cls-1" x="16.29" y="15.96" width="13.72" height="0.86"/><rect class="cls-1" x="16.29" y="17.67" width="13.72" height="0.86"/><rect class="cls-1" x="16.29" y="19.39" width="13.72" height="0.86"/><rect class="cls-1" x="16.29" y="21.1" width="13.72" height="0.86"/><rect class="cls-1" x="16.29" y="24.53" width="38.6" height="1.72"/><rect class="cls-1" x="31.72" y="12.52" width="23.16" height="2.57"/><rect class="cls-1" x="31.72" y="17.67" width="8.58" height="4.29"/><rect class="cls-1" x="41.16" y="17.67" width="13.72" height="0.86"/><rect class="cls-1" x="41.16" y="19.39" width="13.72" height="0.86"/><rect class="cls-1" x="41.16" y="21.1" width="13.72" height="0.86"/><rect class="cls-1" x="7.71" y="28.82" width="22.3" height="0.86"/><rect class="cls-1" x="7.71" y="30.54" width="22.3" height="0.86"/><rect class="cls-1" x="7.71" y="32.25" width="22.3" height="0.86"/><rect class="cls-1" x="7.71" y="33.97" width="13.72" height="0.86"/><rect class="cls-1" x="32.58" y="33.97" width="2.57" height="3.43"/><rect class="cls-1" x="36.01" y="27.11" width="2.57" height="10.29"/><rect class="cls-1" x="39.44" y="29.68" width="2.57" height="7.72"/><circle class="cls-1" cx="49.31" cy="32.68" r="4.72"/><rect class="cls-1" x="8.57" y="12.52" width="6" height="13.72"/><rect class="cls-2" x="66" width="4" height="50"/><path class="cls-3" d="M75.37,7h2.71l1.65,7.28.56,2.79h.09l.55-2.79L82.58,7H85.3V25.67H83.13V18.15c0-2,.25-5.84.36-7.65h-.06l-.92,4.33L81,20.73H79.6l-1.51-5.9-.9-4.33h0c.14,1.81.35,5.69.35,7.65v7.52H75.37Z" transform="translate(-1 -1)"/><path class="cls-3" d="M88.16,21.91c0-3.14,2-4.7,7.17-5.19-.09-1.57-.78-2.75-2.47-2.75a6,6,0,0,0-3.39,1.49l-.91-2.19a8,8,0,0,1,4.75-1.95c2.88,0,4.46,2.16,4.46,6.06v8.29h-2l-.18-1.73H95.5A5.84,5.84,0,0,1,91.63,26C89.61,26,88.16,24.34,88.16,21.91Zm7.17-.18V18.78c-3.73.33-4.8,1.36-4.8,2.88a1.64,1.64,0,0,0,1.83,1.76A4.25,4.25,0,0,0,95.33,21.73Z" transform="translate(-1 -1)"/><path class="cls-3" d="M100.47,18.69c0-4.69,2.47-7.37,5.21-7.37s5.21,2.68,5.21,7.37S108.41,26,105.68,26,100.47,23.33,100.47,18.69Zm7.92,0c0-2.82-1-4.68-2.71-4.68S103,15.87,103,18.69s1,4.64,2.71,4.64S108.39,21.49,108.39,18.69Z" transform="translate(-1 -1)"/><path class="cls-3" d="M113.75,11.66h2l.18,1.6H116a4.62,4.62,0,0,1,3.34-1.94c2.68,0,4.22,2.8,4.22,7.14,0,4.78-2.2,7.56-4.61,7.56a3.86,3.86,0,0,1-2.81-1.66h-.06l.12,2.45v4.41h-2.45Zm7.31,6.82c0-2.79-.73-4.43-2.41-4.43a3.22,3.22,0,0,0-2.45,1.68V22a3.06,3.06,0,0,0,2.25,1.27C119.92,23.29,121.06,21.65,121.06,18.48Z" transform="translate(-1 -1)"/><path class="cls-3" d="M125.81,18.69c0-4.69,2.48-7.37,5.21-7.37s5.21,2.68,5.21,7.37S133.75,26,131,26,125.81,23.33,125.81,18.69Zm7.92,0c0-2.82-1-4.68-2.71-4.68s-2.71,1.86-2.71,4.68,1,4.64,2.71,4.64S133.73,21.49,133.73,18.69Z" transform="translate(-1 -1)"/><path class="cls-3" d="M138.66,23.85l1.07-2.11a6.33,6.33,0,0,0,4.34,1.78c1.43,0,2.11-.74,2.11-1.67s-.46-1.43-2.87-2.1c-2.77-.79-4-2.11-4-4.24,0-2.44,1.64-4.19,4.55-4.19a6.83,6.83,0,0,1,4.34,1.85l-1.13,2a5.25,5.25,0,0,0-3.43-1.41c-1.35,0-1.9.7-1.9,1.56s.76,1.34,2.7,1.9c3.32,1,4.18,2.19,4.18,4.41,0,2.41-1.72,4.36-4.87,4.36A7.86,7.86,0,0,1,138.66,23.85Z" transform="translate(-1 -1)"/><path class="cls-3" d="M156.29,14.27H151.8V11.66h6.93v14h-2.44Zm-.68-7.37c0-1.31.73-2.22,1.74-2.22s1.73.91,1.73,2.22-.73,2.21-1.73,2.21S155.61,8.24,155.61,6.9Z" transform="translate(-1 -1)"/><path class="cls-3" d="M166.71,20V14.27h-2.78V11.81l2.88-.15.32-4.39h2v4.39h4.72v2.61h-4.72V20c0,2.31.64,3.36,2.4,3.36a5,5,0,0,0,2.25-.57l.48,2.4A7.77,7.77,0,0,1,171,26C167.79,26,166.71,23.61,166.71,20Z" transform="translate(-1 -1)"/><path class="cls-3" d="M176.67,18.65c0-4.57,2.57-7.33,5.34-7.33,3.1,0,4.82,2.77,4.82,6.65a15.18,15.18,0,0,1-.11,1.66h-8.31V17.3h6.73l-.47.73c0-2.77-1-4.18-2.58-4.18s-3,1.67-3,4.8,1.45,4.81,3.61,4.81a4.66,4.66,0,0,0,2.91-1.14l.83,2A6.22,6.22,0,0,1,182.34,26C179.16,26,176.67,23.31,176.67,18.65Z" transform="translate(-1 -1)"/><path class="cls-3" d="M189.35,23.85l1.06-2.11a6.37,6.37,0,0,0,4.34,1.78c1.44,0,2.12-.74,2.12-1.67s-.46-1.43-2.88-2.1c-2.76-.79-4-2.11-4-4.24,0-2.44,1.64-4.19,4.54-4.19a6.78,6.78,0,0,1,4.34,1.85l-1.12,2a5.28,5.28,0,0,0-3.44-1.41c-1.34,0-1.9.7-1.9,1.56s.77,1.34,2.71,1.9c3.31,1,4.18,2.19,4.18,4.41,0,2.41-1.72,4.36-4.88,4.36A7.84,7.84,0,0,1,189.35,23.85Z" transform="translate(-1 -1)"/><path class="cls-3" d="M74.86,33.93h2c2.43,0,3.74,1.8,3.74,5S79.28,44,76.9,44h-2Zm1.92,9c1.83,0,2.74-1.48,2.74-4S78.61,35,76.78,35h-.89v8Z" transform="translate(-1 -1)"/><path class="cls-3" d="M85.05,37.58H82.28v-1h3.79V44h-1ZM84.64,34a.83.83,0,1,1,1.63,0c0,.6-.35,1-.82,1S84.64,34.59,84.64,34Z" transform="translate(-1 -1)"/><path class="cls-3" d="M89.43,43l.47-.85a3.68,3.68,0,0,0,2.59,1c1,0,1.5-.53,1.5-1.16s-.23-1-1.86-1.38-2.33-1.06-2.33-2.19.85-2.12,2.48-2.12a4,4,0,0,1,2.41,1l-.49.82a3,3,0,0,0-2-.78c-1,0-1.38.5-1.38,1.07s.51.92,1.74,1.25c2,.54,2.46,1.15,2.46,2.3s-.94,2.24-2.65,2.24A4.57,4.57,0,0,1,89.43,43Z" transform="translate(-1 -1)"/><path class="cls-3" d="M96.77,40.27c0-2.43,1.45-3.91,3-3.91s2.73,1.4,2.73,3.51a5.51,5.51,0,0,1,0,.77h-5v-1h4.45l-.26.36c0-1.77-.7-2.65-1.79-2.65s-2.07,1-2.07,2.91,1,2.92,2.34,2.92a2.84,2.84,0,0,0,1.82-.71l.37.83a3.52,3.52,0,0,1-2.31.9C98.2,44.21,96.77,42.76,96.77,40.27Z" transform="translate(-1 -1)"/><path class="cls-3" d="M104.46,36.55h.84l.08,1.26h.05a3,3,0,0,1,2.26-1.45c1.41,0,2.06,1,2.06,3V44h-1V39.54c0-1.41-.39-2.07-1.36-2.07-.72,0-1.2.44-1.89,1.34V44h-1Zm1.9-2.7c-.37,0-.54.5-.58,1.22l-.68,0c0-1.2.4-2.09,1.24-2.09s1.2,1.29,1.78,1.29c.35,0,.52-.5.56-1.21l.68.06c0,1.18-.4,2.08-1.24,2.08S106.92,33.85,106.36,33.85Z" transform="translate(-1 -1)"/><path class="cls-3" d="M111.68,42.08c0-1.67,1.26-2.49,4.35-2.8,0-1-.43-1.87-1.59-1.87a3.63,3.63,0,0,0-2.09.89l-.41-.86a4.62,4.62,0,0,1,2.67-1.08c1.64,0,2.44,1.22,2.44,3.08V44h-.85l-.09-1h0a3.7,3.7,0,0,1-2.35,1.2A2,2,0,0,1,111.68,42.08Zm4.35,0V40.13c-2.56.25-3.34.88-3.34,1.86A1.15,1.15,0,0,0,114,43.17,3,3,0,0,0,116,42.07Z" transform="translate(-1 -1)"/><path class="cls-3" d="M118.82,40.3c0-2.43,1.29-3.94,2.71-3.94a2.34,2.34,0,0,1,1.79,1h0l0-1.36V33.07h1V44h-.84l-.08-1h0a2.7,2.7,0,0,1-2,1.17C119.85,44.21,118.82,42.79,118.82,40.3ZM123.3,42V38.3a2,2,0,0,0-1.56-.86c-1,0-1.87,1.14-1.87,2.84s.66,2.85,1.75,2.85A2.17,2.17,0,0,0,123.3,42Z" transform="translate(-1 -1)"/><path class="cls-3" d="M126.2,40.3c0-2.51,1.38-3.94,3-3.94s3,1.43,3,3.94-1.38,3.91-3,3.91S126.2,42.77,126.2,40.3Zm4.86,0c0-1.72-.76-2.88-1.91-2.88s-1.9,1.16-1.9,2.88.76,2.84,1.9,2.84S131.06,42,131.06,40.3Z" transform="translate(-1 -1)"/><path class="cls-3" d="M134.63,36.55h.85l.1,1.76h0a3.11,3.11,0,0,1,2.67-2,2.11,2.11,0,0,1,1.18.31l-.23,1.09a2.47,2.47,0,0,0-1.11-.25c-.9,0-1.75.57-2.46,2.14V44h-1Z" transform="translate(-1 -1)"/><path class="cls-3" d="M147.73,33.92h1.16l.59,6.33c.07.85.12,1.34.16,2.34h0c.14-1,.23-1.49.39-2.32l.79-3.76h1l.76,3.76c.18.83.25,1.32.4,2.32h.05c0-1,.07-1.49.14-2.32l.57-6.35h1.11L153.69,44h-1.28L151.62,40c-.12-.62-.22-1.2-.3-1.81h0c-.09.61-.16,1.19-.29,1.81L150.22,44H149Z" transform="translate(-1 -1)"/><path class="cls-3" d="M155.83,40.27c0-2.43,1.45-3.91,3-3.91s2.73,1.4,2.73,3.51a7.64,7.64,0,0,1-.05.77H156.5v-1H161l-.26.36c0-1.77-.7-2.65-1.8-2.65s-2.06,1-2.06,2.91,1,2.92,2.33,2.92a2.82,2.82,0,0,0,1.82-.71l.37.83a3.52,3.52,0,0,1-2.31.9C157.25,44.21,155.83,42.76,155.83,40.27Z" transform="translate(-1 -1)"/><path class="cls-3" d="M164.46,43.19h0l-.1.83h-.81v-11h1v3l0,1.45h0a2.72,2.72,0,0,1,2-1.14c1.61,0,2.48,1.49,2.48,3.8,0,2.55-1.27,4.05-2.69,4.05A2.73,2.73,0,0,1,164.46,43.19Zm3.51-3c0-1.65-.49-2.74-1.69-2.74a2.4,2.4,0,0,0-1.74,1.1v3.73a2.26,2.26,0,0,0,1.61.86C167.18,43.13,168,42,168,40.18Z" transform="translate(-1 -1)"/><path class="cls-3" d="M172.45,42.9c0-.77.44-1.31,1-1.31s1,.54,1,1.31-.44,1.31-1,1.31S172.45,43.68,172.45,42.9Z" transform="translate(-1 -1)"/></svg>